# xmcd
#
# Track frame offsets:
#	150
#	13327
#	26642
#	40470
#	59262
#	80765
#	93517
#	107942
#	120732
#	135672
#	147325
#	162945
#	178630
#	195597
#	208020
#	228175
#	242745
#	257392
#	278317
#	301832
#
# Disc length: 4450 seconds
#
# Revision: 16
# Processed by: cddbd v1.5.2PL0 Copyright (c) Steve Scherf et al.
# Submitted via: EasyCDDAExtractor 15.3.0.1
#
DISCID=14116014
DTITLE=Selena - Ones
DYEAR=2002
DGENRE=Latin
TTITLE0=No Quiero Saber
TTITLE1=Baila Esta Cumbia
TTITLE2=Como La Flor
TTITLE3=La Carcacha
TTITLE4=Buenos Amigos (Duet With Alvaro Torres)
TTITLE5=No Debes Jugar
TTITLE6=La Llamada
TTITLE7=Amor Prohibido
TTITLE8=No Me Queda Mas
TTITLE9=Fotos Y Recuerdos
TTITLE10=El Chico Del Apartamento 512
TTITLE11=Bidi Bidi Bom Bom
TTITLE12=Techno Cumbia
TTITLE13=Si Una Vez
TTITLE14=Donde Quiera Que Estes (Duet With Barrio Boyzz)
TTITLE15=Tu Solo Tu
TTITLE16=Siempre Hace Frio
TTITLE17=I Could Fall In Love
TTITLE18=Dreaming Of You
TTITLE19=Con Tanto Amor - Medley (Amor Prohibido, Si Una Vez, Como La Flor)
EXTD=MediaType: Audio CD Producer: Unknown
EXTT0=
EXTT1=
EXTT2=
EXTT3=
EXTT4=
EXTT5=
EXTT6=
EXTT7=
EXTT8=
EXTT9=
EXTT10=
EXTT11=
EXTT12=
EXTT13=
EXTT14=
EXTT15=
EXTT16=
EXTT17=
EXTT18=
EXTT19=
PLAYORDER=
